<svg width="26" height="26" viewBox="0 0 26 26" xmlns="http://www.w3.org/2000/svg"><title>Error</title><g fill="none" class="nc-icon-wrapper"><path fill-rule="evenodd" clip-rule="evenodd" d="M13 26c7.18 0 13-5.82 13-13S20.18 0 13 0 0 5.82 0 13s5.82 13 13 13z" fill="#CB2431"/><path fill-rule="evenodd" clip-rule="evenodd" d="M8.183 8.183a.625.625 0 0 0 0 .884L12.116 13l-3.933 3.933a.625.625 0 1 0 .884.884L13 13.884l3.933 3.933a.625.625 0 1 0 .884-.884L13.884 13l3.933-3.933a.625.625 0 1 0-.884-.884L13 12.116 9.067 8.183a.625.625 0 0 0-.884 0z" fill="#fff"/><path d="M8.183 9.067l-.353.354.353-.354zm0-.884L7.83 7.83l.353.353zM12.116 13l.354.354.353-.354-.353-.354-.354.354zm-3.933 3.933l-.353-.354.353.354zm0 .884l-.353.354.353-.354zM13 13.884l.354-.354-.354-.353-.354.353.354.354zm3.933 3.933l.354-.354-.354.354zm.884-.884l-.354.354.354-.354zM13.884 13l-.354-.354-.353.354.353.354.354-.354zm3.933-4.817l.354-.353-.354.353zm-.884 0l-.354-.353.354.353zM13 12.116l-.354.354.354.353.354-.353-.354-.354zM9.067 8.183l.354-.353-.354.353zm-.53.53a.125.125 0 0 1 0-.176l-.708-.708c-.439.44-.439 1.152 0 1.592l.708-.708zm3.933 3.933L8.537 8.713l-.708.708 3.934 3.933.707-.708zm-3.933 4.64l3.933-3.932-.707-.708L7.83 16.58l.707.708zm0 .177a.125.125 0 0 1 0-.176l-.708-.707c-.439.439-.439 1.151 0 1.59l.708-.707zm.176 0a.125.125 0 0 1-.176 0l-.708.707c.44.44 1.152.44 1.592 0l-.708-.707zm3.933-3.933l-3.933 3.933.708.707 3.933-3.933-.708-.707zm4.64 3.933l-3.932-3.933-.708.707 3.933 3.934.708-.708zm.177 0a.125.125 0 0 1-.176 0l-.707.707c.439.44 1.151.44 1.59 0l-.707-.707zm0-.176a.125.125 0 0 1 0 .176l.707.707c.44-.439.44-1.151 0-1.59l-.707.707zm-3.933-3.933l3.933 3.933.707-.707-3.933-3.934-.707.708zm3.933-4.64l-3.933 3.932.707.708 3.934-3.933-.708-.708zm0-.177a.125.125 0 0 1 0 .176l.707.708c.44-.44.44-1.152 0-1.591l-.707.707zm-.176 0a.125.125 0 0 1 .176 0l.707-.708a1.125 1.125 0 0 0-1.59 0l.707.708zm-3.933 3.933l3.933-3.933-.707-.708-3.934 3.934.708.707zm-4.64-3.933l3.932 3.933.708-.707L9.42 7.83l-.708.707zm-.177 0a.125.125 0 0 1 .176 0l.708-.708a1.125 1.125 0 0 0-1.591 0l.707.708z" fill="#fff"/></g></svg>
