<svg class="egs-icon" xmlns="http://www.w3.org/2000/svg" viewBox="0 0 437 437"><path d="M219.6 410.6c-59 0-118 0-177 0 -24.9 0-42.6-17.7-42.6-42.5 0-100 0-200 0-300C0.1 46.3 16.5 28 38.1 27.4c32.6-0.9 65.3-0.8 98-0.9 82.8-0.1 165.7-0.1 248.5 0.1 8.9 0 18.3 0.3 26.6 3.1 17.6 5.9 27.1 20.8 27.2 39.6 0.1 38.2 0 76.3 0 114.5 0 60.8 0 121.7 0 182.5 0 26.6-17.6 44.2-44.1 44.2 -58.2 0-116.3 0-174.5 0C219.6 410.5 219.6 410.6 219.6 410.6zM123.1 355.3c20.6 0 41.3-0.1 61.9 0.1 4.5 0 6.2-1.3 6.1-5.9 -0.2-23.3-0.2-46.6 0-69.9 0-4.6-1.6-6-6.1-6 -41.3 0.1-82.6 0.1-123.9 0 -4.5 0-6.1 1.2-6.1 5.9 0.2 23.3 0.2 46.6 0 69.9 0 4.6 1.5 6 6 6C81.9 355.2 102.5 355.3 123.1 355.3zM315.1 273.6c-20.7 0-41.3 0.1-62-0.1 -4.5 0-6.2 1.2-6.1 5.9 0.2 23.3 0.2 46.7 0 70 0 4.6 1.5 6 6.1 6 41.3-0.1 82.6-0.1 124 0 4.5 0 6.1-1.3 6.1-5.9 -0.2-23.3-0.2-46.7 0-70 0-4.6-1.4-6-6-6C356.4 273.7 335.8 273.6 315.1 273.6zM122.8 218.4c20.7 0 41.3-0.1 62 0.1 5 0.1 6.6-1.5 6.6-6.6 -0.2-22.6-0.1-45.3-0.1-67.9 0-6.3-0.3-6.6-6.4-6.6 -41.1 0-82.3 0.1-123.4-0.1 -4.9 0-6.3 1.7-6.2 6.4 0.2 22.8 0.2 45.6 0 68.4 -0.1 5.3 1.8 6.4 6.7 6.4C82.1 218.2 102.4 218.4 122.8 218.4zM314.9 218.3c20.7 0 41.3-0.1 62 0.1 4.4 0 6.2-1 6.2-5.8 -0.2-23.2-0.2-46.3 0-69.5 0-4.4-1.5-5.8-5.8-5.8 -41.5 0.1-83 0.1-124.4 0 -4.4 0-5.8 1.7-5.7 5.9 0.1 23 0.2 46 0 69 0 4.9 1.8 6.2 6.4 6.2C273.9 218.2 294.4 218.3 314.9 218.3z" fill="#232848"/></svg>